HIERARCHY
ROOT Hips
{
	OFFSET 0.000000 0.000000 0.000000
	CHANNELS 6 Xposition Yposition Zposition Zrotation Yrotation Xrotation 
	JOINT LHipJoint
	{
		OFFSET 0.000000 0.000000 0.000000
		CHANNELS 3 Zrotation Yrotation Xrotation
		JOINT LeftUpLeg
		{
			OFFSET 1.363060 -1.794630 0.839290
			CHANNELS 3 Zrotation Yrotation Xrotation
			JOINT LeftLeg
			{
				OFFSET 2.448110 -6.726130 0.000000
				CHANNELS 3 Zrotation Yrotation Xrotation
				JOINT LeftFoot
				{
					OFFSET 2.562200 -7.039590 0.000000
					CHANNELS 3 Zrotation Yrotation Xrotation
					JOINT LeftToeBase
					{
						OFFSET 0.157640 -0.433110 2.322550
						CHANNELS 3 Zrotation Yrotation Xrotation
						End Site
						{
							OFFSET 0.000000 0.000000 0.000000
						}
					}
				}
			}
		}
	}
	JOINT RHipJoint
	{
		OFFSET 0.000000 0.000000 0.000000
		CHANNELS 3 Zrotation Yrotation Xrotation
		JOINT RightUpLeg
		{
			OFFSET -1.305520 -1.794630 0.839290
			CHANNELS 3 Zrotation Yrotation Xrotation
			JOINT RightLeg
			{
				OFFSET -2.542530 -6.985550 0.000000
				CHANNELS 3 Zrotation Yrotation Xrotation
				JOINT RightFoot
				{
					OFFSET -2.568260 -7.056230 0.000000
					CHANNELS 3 Zrotation Yrotation Xrotation
					JOINT RightToeBase
					{
						OFFSET -0.164730 -0.452590 2.363150
						CHANNELS 3 Zrotation Yrotation Xrotation
						End Site
						{
							OFFSET 0.000000 0.000000 0.000000
						}
					}
				}
			}
		}
	}
	JOINT LowerBack
	{
		OFFSET 0.000000 0.000000 0.000000
		CHANNELS 3 Zrotation Yrotation Xrotation
		JOINT Spine
		{
			OFFSET 0.028270 2.035590 -0.193380
			CHANNELS 3 Zrotation Yrotation Xrotation
			JOINT Spine1
			{
				OFFSET 0.056720 2.048850 -0.042750
				CHANNELS 3 Zrotation Yrotation Xrotation
				JOINT Neck
				{
					OFFSET 0.000000 0.000000 0.000000
					CHANNELS 3 Zrotation Yrotation Xrotation
					JOINT Neck1
					{
						OFFSET -0.054170 1.746240 0.172020
						CHANNELS 3 Zrotation Yrotation Xrotation
						JOINT Head
						{
							OFFSET 0.104070 1.761360 -0.123970
							CHANNELS 3 Zrotation Yrotation Xrotation
							End Site
							{
								OFFSET 0.000000 0.000000 0.000000
							}
						}
					}
				}
				JOINT LeftShoulder
				{
					OFFSET 0.000000 0.000000 0.000000
					CHANNELS 3 Zrotation Yrotation Xrotation
					JOINT LeftArm
					{
						OFFSET 3.362410 1.200890 -0.311210
						CHANNELS 3 Zrotation Yrotation Xrotation
						JOINT LeftForeArm
						{
							OFFSET 4.983000 -0.000000 -0.000000
							CHANNELS 3 Zrotation Yrotation Xrotation
							JOINT LeftHand
							{
								OFFSET 3.483560 -0.000000 -0.000000
								CHANNELS 3 Zrotation Yrotation Xrotation
								JOINT LeftFingerBase
								{
									OFFSET 0.000000 0.000000 0.000000
									CHANNELS 3 Zrotation Yrotation Xrotation
									JOINT LeftHandIndex1
									{
										OFFSET 0.715260 -0.000000 -0.000000
										CHANNELS 3 Zrotation Yrotation Xrotation
										End Site
										{
											OFFSET 0.000000 0.000000 0.000000
										}
									}
								}
								JOINT LThumb
								{
									OFFSET 0.000000 0.000000 0.000000
									CHANNELS 3 Zrotation Yrotation Xrotation
									End Site
									{
										OFFSET 0.000000 0.000000 0.000000
									}
								}
							}
						}
					}
				}
				JOINT RightShoulder
				{
					OFFSET 0.000000 0.000000 0.000000
					CHANNELS 3 Zrotation Yrotation Xrotation
					JOINT RightArm
					{
						OFFSET -3.136600 1.374050 -0.404650
						CHANNELS 3 Zrotation Yrotation Xrotation
						JOINT RightForeArm
						{
							OFFSET -5.241900 -0.000000 -0.000000
							CHANNELS 3 Zrotation Yrotation Xrotation
							JOINT RightHand
							{
								OFFSET -3.444170 -0.000000 -0.000000
								CHANNELS 3 Zrotation Yrotation Xrotation
								JOINT RightFingerBase
								{
									OFFSET 0.000000 0.000000 0.000000
									CHANNELS 3 Zrotation Yrotation Xrotation
									JOINT RightHandIndex1
									{
										OFFSET -0.622530 -0.000000 -0.000000
										CHANNELS 3 Zrotation Yrotation Xrotation
										End Site
										{
											OFFSET 0.000000 0.000000 0.000000
										}
									}
								}
								JOINT RThumb
								{
									OFFSET 0.000000 0.000000 0.000000
									CHANNELS 3 Zrotation Yrotation Xrotation
									End Site
									{
										OFFSET 0.000000 0.000000 0.000000
									}
								}
							}
						}
					}
				}
			}
		}
	}
}
MOTION
Frames: 5
Frame Time: 0.008333
23.195699 14.411464 2.302640 -26.330476 -88.239803 69.190319 -7.007598 -2.271678 1.462213 -12.882136 -10.568400 -99.522145 -0.472223 5.903321 64.457130 2.370161 7.547532 -12.743450 -0.090699 -0.000000 -18.455401 11.319588 -3.036654 -3.593846 11.368049 -4.300628 -16.671289 1.971615 -2.509375 40.288629 0.085158 3.652071 -7.376993 -0.000900 0.000000 -80.374500 -8.178469 0.439305 5.896230 -2.153560 0.903483 -1.575878 -3.335286 0.916902 0.258570 7.874131 -11.804645 -8.610434 0.129070 0.067383 -0.806393 0.000000 0.000000 0.000000 6.487138 16.138205 2.742092 -66.926300 28.140441 20.880756 -179.946783 -89.736128 -179.959936 -14.326087 -1.076787 0.160489 0.235073 0.184673 0.000000 0.000000 0.000000 0.000000 0.000000 0.000000 0.000000 -3.020552 -4.816543 0.251522 56.911269 12.587927 17.942356 178.472178 69.709043 -179.961251 4.653539 4.758209 0.219389 -0.071429 -0.543268 -0.000000 0.000000 0.000000 0.000000 0.000000 0.000000 0.000000 
22.968480 14.395554 2.309171 0.876648 -88.638370 41.997786 -7.768520 -2.211869 1.617551 -12.707445 -11.041994 -99.271325 -0.303242 6.066810 65.636805 2.443068 7.759039 -13.467218 -0.222400 0.000001 -16.384500 10.463326 -3.051917 -3.737834 11.408851 -4.342249 -16.841560 1.644169 -2.544231 41.903504 0.014232 2.903755 -5.732987 0.049200 -0.000000 -78.778100 -9.027403 0.401121 5.926186 -2.358576 0.844510 -1.577946 -3.414348 0.862658 0.201508 7.856575 -11.532575 -8.522717 0.052257 0.060004 -0.784178 0.000000 0.000000 0.000000 5.771044 15.850081 2.800659 -66.742022 26.712136 20.313673 0.014977 -89.578414 0.040476 -14.123643 -0.890768 0.134691 0.221777 0.184154 0.000000 0.000000 0.000000 0.000000 0.000000 0.000000 0.000000 -2.882848 -4.558114 0.208371 57.825449 12.113914 17.389784 178.517041 69.972187 -179.960665 4.765645 4.804749 0.226898 -0.078575 -0.545366 -0.000000 0.000000 0.000000 0.000000 0.000000 0.000000 0.000000 
22.748690 14.389442 2.305243 4.826474 -88.730092 38.014720 -7.835532 -2.189059 1.493601 -12.867535 -10.911283 -98.814545 -0.196350 6.138122 66.839038 2.515592 7.936882 -14.477544 -0.419900 0.000000 -14.351200 10.456157 -2.999267 -3.679250 11.303634 -3.844145 -17.390800 1.303794 -2.661900 44.024772 -0.122058 1.806988 -4.592832 0.039501 -0.000000 -76.658400 -9.401418 0.443742 5.996542 -2.478885 0.884856 -1.579181 -3.551880 0.906586 0.139078 7.897793 -11.237626 -8.426696 -0.037835 0.051540 -0.764085 0.000000 0.000000 0.000000 5.138988 15.628235 2.863620 -66.597287 25.112990 19.628767 -0.030699 -88.831824 0.040938 -13.882106 -0.674712 0.105698 0.207787 0.184172 0.000000 0.000000 0.000000 0.000000 0.000000 0.000000 0.000000 -2.622746 -4.222873 0.167501 58.902623 11.782941 16.825433 178.573096 70.432146 -179.960124 4.863731 4.832334 0.233107 -0.084950 -0.547416 -0.000000 0.000000 0.000000 0.000000 0.000000 0.000000 0.000000 
22.532235 14.387717 2.302430 7.908511 -88.819096 34.933602 -7.883351 -2.161814 1.384580 -13.022982 -10.777695 -98.319434 -0.107535 6.190409 67.903778 2.609044 8.183873 -15.546341 -0.635700 -0.000001 -12.638100 10.481592 -2.918380 -3.627393 11.232553 -3.383916 -18.228098 0.968233 -2.783041 46.472181 -0.319473 0.353346 -3.921524 -0.031200 -0.000001 -74.040700 -9.716556 0.470514 6.052380 -2.585182 0.909717 -1.583407 -3.694679 0.934780 0.075946 7.925736 -10.910658 -8.314877 -0.137354 0.042062 -0.739910 0.000000 0.000000 0.000000 4.440383 15.413648 2.922722 -66.450107 23.433609 18.840817 -0.077562 -88.085698 0.041345 -13.602302 -0.439187 0.075110 0.192974 0.184566 0.000000 0.000000 0.000000 0.000000 0.000000 0.000000 0.000000 -2.328388 -3.872104 0.120801 60.086439 11.494790 16.268356 178.642071 71.054390 -179.959673 4.961143 4.848277 0.238716 -0.091207 -0.548107 -0.000000 0.000000 0.000000 0.000000 0.000000 0.000000 0.000000 
22.319259 14.390357 2.300793 10.439181 -88.914939 32.437119 -7.921413 -2.133759 1.290888 -13.163355 -10.639032 -97.798595 -0.032290 6.227190 68.842870 2.717855 8.489454 -16.618568 -0.864000 -0.000000 -11.355600 10.528927 -2.809008 -3.586055 11.187127 -2.978282 -19.335986 0.643184 -2.906184 49.194807 -0.577301 -1.442822 -3.731171 -0.148700 0.000000 -70.976800 -9.983239 0.479784 6.097508 -2.679407 0.917323 -1.590266 -3.840087 0.945540 0.008455 7.941228 -10.551752 -8.188504 -0.245227 0.031710 -0.712086 0.000000 0.000000 0.000000 3.688840 15.192093 2.978005 -66.318856 21.705473 17.926885 -0.124660 -87.354822 0.041697 -13.294493 -0.191871 0.044425 0.177769 0.185466 0.000000 0.000000 0.000000 0.000000 0.000000 0.000000 0.000000 -2.001991 -3.505837 0.070742 61.367127 11.240676 15.712293 178.722371 71.829807 -179.959251 5.067476 4.864040 0.244824 -0.097645 -0.547782 -0.000000 0.000000 0.000000 0.000000 0.000000 0.000000 0.000000 
